
<svg width="1920" height="362" viewBox="0 0 1920 362" fill="none" xmlns="http://www.w3.org/2000/svg">
<rect width="1920" height="362" fill="#0E0E0E"/>
<path d="M149.453 92.6719V101C149.172 101.417 148.724 101.885 148.109 102.406C147.495 102.917 146.646 103.365 145.562 103.75C144.49 104.125 143.104 104.312 141.406 104.312C140.021 104.312 138.745 104.073 137.578 103.594C136.422 103.104 135.417 102.396 134.562 101.469C133.719 100.531 133.062 99.3958 132.594 98.0625C132.135 96.7188 131.906 95.1979 131.906 93.5V91.7344C131.906 90.0365 132.104 88.5208 132.5 87.1875C132.906 85.8542 133.5 84.724 134.281 83.7969C135.062 82.8594 136.021 82.151 137.156 81.6719C138.292 81.1823 139.594 80.9375 141.062 80.9375C142.802 80.9375 144.255 81.2396 145.422 81.8438C146.599 82.4375 147.516 83.2604 148.172 84.3125C148.839 85.3646 149.266 86.5625 149.453 87.9062H146.438C146.302 87.0833 146.031 86.3333 145.625 85.6562C145.229 84.9792 144.661 84.4375 143.922 84.0312C143.182 83.6146 142.229 83.4062 141.062 83.4062C140.01 83.4062 139.099 83.599 138.328 83.9844C137.557 84.3698 136.922 84.9219 136.422 85.6406C135.922 86.3594 135.547 87.2292 135.297 88.25C135.057 89.2708 134.938 90.4219 134.938 91.7031V93.5C134.938 94.8125 135.089 95.9844 135.391 97.0156C135.703 98.0469 136.146 98.9271 136.719 99.6562C137.292 100.375 137.974 100.922 138.766 101.297C139.568 101.672 140.453 101.859 141.422 101.859C142.495 101.859 143.365 101.771 144.031 101.594C144.698 101.406 145.219 101.188 145.594 100.938C145.969 100.677 146.255 100.432 146.453 100.203V95.1094H141.188V92.6719H149.453ZM161.031 104.312C159.854 104.312 158.786 104.115 157.828 103.719C156.88 103.312 156.062 102.745 155.375 102.016C154.698 101.286 154.177 100.422 153.812 99.4219C153.448 98.4219 153.266 97.3281 153.266 96.1406V95.4844C153.266 94.1094 153.469 92.8854 153.875 91.8125C154.281 90.7292 154.833 89.8125 155.531 89.0625C156.229 88.3125 157.021 87.7448 157.906 87.3594C158.792 86.974 159.708 86.7812 160.656 86.7812C161.865 86.7812 162.906 86.9896 163.781 87.4062C164.667 87.8229 165.391 88.4062 165.953 89.1562C166.516 89.8958 166.932 90.7708 167.203 91.7812C167.474 92.7812 167.609 93.875 167.609 95.0625V96.3594H154.984V94H164.719V93.7812C164.677 93.0312 164.521 92.3021 164.25 91.5938C163.99 90.8854 163.573 90.3021 163 89.8438C162.427 89.3854 161.646 89.1562 160.656 89.1562C160 89.1562 159.396 89.2969 158.844 89.5781C158.292 89.849 157.818 90.2552 157.422 90.7969C157.026 91.3385 156.719 92 156.5 92.7812C156.281 93.5625 156.172 94.4635 156.172 95.4844V96.1406C156.172 96.9427 156.281 97.6979 156.5 98.4062C156.729 99.1042 157.057 99.7188 157.484 100.25C157.922 100.781 158.448 101.198 159.062 101.5C159.688 101.802 160.396 101.953 161.188 101.953C162.208 101.953 163.073 101.745 163.781 101.328C164.49 100.911 165.109 100.354 165.641 99.6562L167.391 101.047C167.026 101.599 166.562 102.125 166 102.625C165.438 103.125 164.745 103.531 163.922 103.844C163.109 104.156 162.146 104.312 161.031 104.312ZM173.875 90.7031V104H170.984V87.0938H173.719L173.875 90.7031ZM173.188 94.9062L171.984 94.8594C171.995 93.7031 172.167 92.6354 172.5 91.6562C172.833 90.6667 173.302 89.8073 173.906 89.0781C174.51 88.349 175.229 87.7865 176.062 87.3906C176.906 86.9844 177.839 86.7812 178.859 86.7812C179.693 86.7812 180.443 86.8958 181.109 87.125C181.776 87.3438 182.344 87.6979 182.812 88.1875C183.292 88.6771 183.656 89.3125 183.906 90.0938C184.156 90.8646 184.281 91.8073 184.281 92.9219V104H181.375V92.8906C181.375 92.0052 181.245 91.2969 180.984 90.7656C180.724 90.224 180.344 89.8333 179.844 89.5938C179.344 89.3438 178.729 89.2188 178 89.2188C177.281 89.2188 176.625 89.3698 176.031 89.6719C175.448 89.974 174.943 90.3906 174.516 90.9219C174.099 91.4531 173.771 92.0625 173.531 92.75C173.302 93.4271 173.188 94.1458 173.188 94.9062ZM191.812 87.0938V104H188.906V87.0938H191.812ZM188.688 82.6094C188.688 82.1406 188.828 81.7448 189.109 81.4219C189.401 81.099 189.828 80.9375 190.391 80.9375C190.943 80.9375 191.365 81.099 191.656 81.4219C191.958 81.7448 192.109 82.1406 192.109 82.6094C192.109 83.0573 191.958 83.4427 191.656 83.7656C191.365 84.0781 190.943 84.2344 190.391 84.2344C189.828 84.2344 189.401 84.0781 189.109 83.7656C188.828 83.4427 188.688 83.0573 188.688 82.6094ZM206.797 100.094V87.0938H209.703V104H206.938L206.797 100.094ZM207.344 96.5312L208.547 96.5C208.547 97.625 208.427 98.6667 208.188 99.625C207.958 100.573 207.583 101.396 207.062 102.094C206.542 102.792 205.859 103.339 205.016 103.734C204.172 104.12 203.146 104.312 201.938 104.312C201.115 104.312 200.359 104.193 199.672 103.953C198.995 103.714 198.411 103.344 197.922 102.844C197.432 102.344 197.052 101.693 196.781 100.891C196.521 100.089 196.391 99.125 196.391 98V87.0938H199.281V98.0312C199.281 98.7917 199.365 99.4219 199.531 99.9219C199.708 100.411 199.943 100.802 200.234 101.094C200.536 101.375 200.87 101.573 201.234 101.688C201.609 101.802 201.995 101.859 202.391 101.859C203.62 101.859 204.594 101.625 205.312 101.156C206.031 100.677 206.547 100.036 206.859 99.2344C207.182 98.4219 207.344 97.5208 207.344 96.5312ZM223.953 99.5156C223.953 99.099 223.859 98.7135 223.672 98.3594C223.495 97.9948 223.125 97.6667 222.562 97.375C222.01 97.0729 221.177 96.8125 220.062 96.5938C219.125 96.3958 218.276 96.1615 217.516 95.8906C216.766 95.6198 216.125 95.2917 215.594 94.9062C215.073 94.5208 214.672 94.0677 214.391 93.5469C214.109 93.026 213.969 92.4167 213.969 91.7188C213.969 91.0521 214.115 90.4219 214.406 89.8281C214.708 89.2344 215.13 88.7083 215.672 88.25C216.224 87.7917 216.885 87.4323 217.656 87.1719C218.427 86.9115 219.286 86.7812 220.234 86.7812C221.589 86.7812 222.745 87.0208 223.703 87.5C224.661 87.9792 225.396 88.6198 225.906 89.4219C226.417 90.2135 226.672 91.0938 226.672 92.0625H223.781C223.781 91.5938 223.641 91.1406 223.359 90.7031C223.089 90.2552 222.688 89.8854 222.156 89.5938C221.635 89.3021 220.995 89.1562 220.234 89.1562C219.432 89.1562 218.781 89.2812 218.281 89.5312C217.792 89.7708 217.432 90.0781 217.203 90.4531C216.984 90.8281 216.875 91.224 216.875 91.6406C216.875 91.9531 216.927 92.2344 217.031 92.4844C217.146 92.724 217.344 92.9479 217.625 93.1562C217.906 93.3542 218.302 93.5417 218.812 93.7188C219.323 93.8958 219.974 94.0729 220.766 94.25C222.151 94.5625 223.292 94.9375 224.188 95.375C225.083 95.8125 225.75 96.349 226.188 96.9844C226.625 97.6198 226.844 98.3906 226.844 99.2969C226.844 100.036 226.688 100.714 226.375 101.328C226.073 101.943 225.63 102.474 225.047 102.922C224.474 103.359 223.786 103.703 222.984 103.953C222.193 104.193 221.302 104.312 220.312 104.312C218.823 104.312 217.562 104.047 216.531 103.516C215.5 102.984 214.719 102.297 214.188 101.453C213.656 100.609 213.391 99.7188 213.391 98.7812H216.297C216.339 99.5729 216.568 100.203 216.984 100.672C217.401 101.13 217.911 101.458 218.516 101.656C219.12 101.844 219.719 101.938 220.312 101.938C221.104 101.938 221.766 101.833 222.297 101.625C222.839 101.417 223.25 101.13 223.531 100.766C223.812 100.401 223.953 99.9844 223.953 99.5156ZM255.828 92.6719V101C255.547 101.417 255.099 101.885 254.484 102.406C253.87 102.917 253.021 103.365 251.938 103.75C250.865 104.125 249.479 104.312 247.781 104.312C246.396 104.312 245.12 104.073 243.953 103.594C242.797 103.104 241.792 102.396 240.938 101.469C240.094 100.531 239.438 99.3958 238.969 98.0625C238.51 96.7188 238.281 95.1979 238.281 93.5V91.7344C238.281 90.0365 238.479 88.5208 238.875 87.1875C239.281 85.8542 239.875 84.724 240.656 83.7969C241.438 82.8594 242.396 82.151 243.531 81.6719C244.667 81.1823 245.969 80.9375 247.438 80.9375C249.177 80.9375 250.63 81.2396 251.797 81.8438C252.974 82.4375 253.891 83.2604 254.547 84.3125C255.214 85.3646 255.641 86.5625 255.828 87.9062H252.812C252.677 87.0833 252.406 86.3333 252 85.6562C251.604 84.9792 251.036 84.4375 250.297 84.0312C249.557 83.6146 248.604 83.4062 247.438 83.4062C246.385 83.4062 245.474 83.599 244.703 83.9844C243.932 84.3698 243.297 84.9219 242.797 85.6406C242.297 86.3594 241.922 87.2292 241.672 88.25C241.432 89.2708 241.312 90.4219 241.312 91.7031V93.5C241.312 94.8125 241.464 95.9844 241.766 97.0156C242.078 98.0469 242.521 98.9271 243.094 99.6562C243.667 100.375 244.349 100.922 245.141 101.297C245.943 101.672 246.828 101.859 247.797 101.859C248.87 101.859 249.74 101.771 250.406 101.594C251.073 101.406 251.594 101.188 251.969 100.938C252.344 100.677 252.63 100.432 252.828 100.203V95.1094H247.562V92.6719H255.828ZM267.406 104.312C266.229 104.312 265.161 104.115 264.203 103.719C263.255 103.312 262.438 102.745 261.75 102.016C261.073 101.286 260.552 100.422 260.188 99.4219C259.823 98.4219 259.641 97.3281 259.641 96.1406V95.4844C259.641 94.1094 259.844 92.8854 260.25 91.8125C260.656 90.7292 261.208 89.8125 261.906 89.0625C262.604 88.3125 263.396 87.7448 264.281 87.3594C265.167 86.974 266.083 86.7812 267.031 86.7812C268.24 86.7812 269.281 86.9896 270.156 87.4062C271.042 87.8229 271.766 88.4062 272.328 89.1562C272.891 89.8958 273.307 90.7708 273.578 91.7812C273.849 92.7812 273.984 93.875 273.984 95.0625V96.3594H261.359V94H271.094V93.7812C271.052 93.0312 270.896 92.3021 270.625 91.5938C270.365 90.8854 269.948 90.3021 269.375 89.8438C268.802 89.3854 268.021 89.1562 267.031 89.1562C266.375 89.1562 265.771 89.2969 265.219 89.5781C264.667 89.849 264.193 90.2552 263.797 90.7969C263.401 91.3385 263.094 92 262.875 92.7812C262.656 93.5625 262.547 94.4635 262.547 95.4844V96.1406C262.547 96.9427 262.656 97.6979 262.875 98.4062C263.104 99.1042 263.432 99.7188 263.859 100.25C264.297 100.781 264.823 101.198 265.438 101.5C266.062 101.802 266.771 101.953 267.562 101.953C268.583 101.953 269.448 101.745 270.156 101.328C270.865 100.911 271.484 100.354 272.016 99.6562L273.766 101.047C273.401 101.599 272.938 102.125 272.375 102.625C271.812 103.125 271.12 103.531 270.297 103.844C269.484 104.156 268.521 104.312 267.406 104.312ZM280.25 90.7031V104H277.359V87.0938H280.094L280.25 90.7031ZM279.562 94.9062L278.359 94.8594C278.37 93.7031 278.542 92.6354 278.875 91.6562C279.208 90.6667 279.677 89.8073 280.281 89.0781C280.885 88.349 281.604 87.7865 282.438 87.3906C283.281 86.9844 284.214 86.7812 285.234 86.7812C286.068 86.7812 286.818 86.8958 287.484 87.125C288.151 87.3438 288.719 87.6979 289.188 88.1875C289.667 88.6771 290.031 89.3125 290.281 90.0938C290.531 90.8646 290.656 91.8073 290.656 92.9219V104H287.75V92.8906C287.75 92.0052 287.62 91.2969 287.359 90.7656C287.099 90.224 286.719 89.8333 286.219 89.5938C285.719 89.3438 285.104 89.2188 284.375 89.2188C283.656 89.2188 283 89.3698 282.406 89.6719C281.823 89.974 281.318 90.3906 280.891 90.9219C280.474 91.4531 280.146 92.0625 279.906 92.75C279.677 93.4271 279.562 94.1458 279.562 94.9062ZM311.844 83.2656L304.312 104H301.234L309.906 81.25H311.891L311.844 83.2656ZM318.156 104L310.609 83.2656L310.562 81.25H312.547L321.25 104H318.156ZM317.766 95.5781V98.0469H304.984V95.5781H317.766ZM330.625 101.938C331.312 101.938 331.948 101.797 332.531 101.516C333.115 101.234 333.594 100.849 333.969 100.359C334.344 99.8594 334.557 99.2917 334.609 98.6562H337.359C337.307 99.6562 336.969 100.589 336.344 101.453C335.729 102.307 334.922 103 333.922 103.531C332.922 104.052 331.823 104.312 330.625 104.312C329.354 104.312 328.245 104.089 327.297 103.641C326.359 103.193 325.578 102.578 324.953 101.797C324.339 101.016 323.875 100.12 323.562 99.1094C323.26 98.0885 323.109 97.0104 323.109 95.875V95.2188C323.109 94.0833 323.26 93.0104 323.562 92C323.875 90.9792 324.339 90.0781 324.953 89.2969C325.578 88.5156 326.359 87.901 327.297 87.4531C328.245 87.0052 329.354 86.7812 330.625 86.7812C331.948 86.7812 333.104 87.0521 334.094 87.5938C335.083 88.125 335.859 88.8542 336.422 89.7812C336.995 90.6979 337.307 91.7396 337.359 92.9062H334.609C334.557 92.2083 334.359 91.5781 334.016 91.0156C333.682 90.4531 333.224 90.0052 332.641 89.6719C332.068 89.3281 331.396 89.1562 330.625 89.1562C329.74 89.1562 328.995 89.3333 328.391 89.6875C327.797 90.0312 327.323 90.5 326.969 91.0938C326.625 91.6771 326.375 92.3281 326.219 93.0469C326.073 93.7552 326 94.4792 326 95.2188V95.875C326 96.6146 326.073 97.3438 326.219 98.0625C326.365 98.7812 326.609 99.4323 326.953 100.016C327.307 100.599 327.781 101.068 328.375 101.422C328.979 101.766 329.729 101.938 330.625 101.938ZM350.578 101.109V92.4062C350.578 91.7396 350.443 91.1615 350.172 90.6719C349.911 90.1719 349.516 89.7865 348.984 89.5156C348.453 89.2448 347.797 89.1094 347.016 89.1094C346.286 89.1094 345.646 89.2344 345.094 89.4844C344.552 89.7344 344.125 90.0625 343.812 90.4688C343.51 90.875 343.359 91.3125 343.359 91.7812H340.469C340.469 91.1771 340.625 90.5781 340.938 89.9844C341.25 89.3906 341.698 88.8542 342.281 88.375C342.875 87.8854 343.583 87.5 344.406 87.2188C345.24 86.9271 346.167 86.7812 347.188 86.7812C348.417 86.7812 349.5 86.9896 350.438 87.4062C351.385 87.8229 352.125 88.4531 352.656 89.2969C353.198 90.1302 353.469 91.1771 353.469 92.4375V100.312C353.469 100.875 353.516 101.474 353.609 102.109C353.714 102.745 353.865 103.292 354.062 103.75V104H351.047C350.901 103.667 350.786 103.224 350.703 102.672C350.62 102.109 350.578 101.589 350.578 101.109ZM351.078 93.75L351.109 95.7812H348.188C347.365 95.7812 346.63 95.849 345.984 95.9844C345.339 96.1094 344.797 96.3021 344.359 96.5625C343.922 96.8229 343.589 97.151 343.359 97.5469C343.13 97.9323 343.016 98.3854 343.016 98.9062C343.016 99.4375 343.135 99.9219 343.375 100.359C343.615 100.797 343.974 101.146 344.453 101.406C344.943 101.656 345.542 101.781 346.25 101.781C347.135 101.781 347.917 101.594 348.594 101.219C349.271 100.844 349.807 100.385 350.203 99.8438C350.609 99.3021 350.828 98.776 350.859 98.2656L352.094 99.6562C352.021 100.094 351.823 100.578 351.5 101.109C351.177 101.641 350.745 102.151 350.203 102.641C349.672 103.12 349.036 103.521 348.297 103.844C347.568 104.156 346.745 104.312 345.828 104.312C344.682 104.312 343.677 104.089 342.812 103.641C341.958 103.193 341.292 102.594 340.812 101.844C340.344 101.083 340.109 100.234 340.109 99.2969C340.109 98.3906 340.286 97.5938 340.641 96.9062C340.995 96.2083 341.505 95.6302 342.172 95.1719C342.839 94.7031 343.641 94.349 344.578 94.1094C345.516 93.8698 346.562 93.75 347.719 93.75H351.078ZM368.672 100.719V80H371.578V104H368.922L368.672 100.719ZM357.297 95.7344V95.4062C357.297 94.1146 357.453 92.9427 357.766 91.8906C358.089 90.8281 358.542 89.9167 359.125 89.1562C359.719 88.3958 360.422 87.8125 361.234 87.4062C362.057 86.9896 362.974 86.7812 363.984 86.7812C365.047 86.7812 365.974 86.9688 366.766 87.3438C367.568 87.7083 368.245 88.2448 368.797 88.9531C369.359 89.651 369.802 90.4948 370.125 91.4844C370.448 92.474 370.672 93.5938 370.797 94.8438V96.2812C370.682 97.5208 370.458 98.6354 370.125 99.625C369.802 100.615 369.359 101.458 368.797 102.156C368.245 102.854 367.568 103.391 366.766 103.766C365.964 104.13 365.026 104.312 363.953 104.312C362.964 104.312 362.057 104.099 361.234 103.672C360.422 103.245 359.719 102.646 359.125 101.875C358.542 101.104 358.089 100.198 357.766 99.1562C357.453 98.1042 357.297 96.9635 357.297 95.7344ZM360.203 95.4062V95.7344C360.203 96.5781 360.286 97.3698 360.453 98.1094C360.63 98.849 360.901 99.5 361.266 100.062C361.63 100.625 362.094 101.068 362.656 101.391C363.219 101.703 363.891 101.859 364.672 101.859C365.63 101.859 366.417 101.656 367.031 101.25C367.656 100.844 368.156 100.307 368.531 99.6406C368.906 98.974 369.198 98.25 369.406 97.4688V93.7031C369.281 93.1302 369.099 92.5781 368.859 92.0469C368.63 91.5052 368.328 91.026 367.953 90.6094C367.589 90.1823 367.135 89.8438 366.594 89.5938C366.062 89.3438 365.432 89.2188 364.703 89.2188C363.911 89.2188 363.229 89.3854 362.656 89.7188C362.094 90.0417 361.63 90.4896 361.266 91.0625C360.901 91.625 360.63 92.2812 360.453 93.0312C360.286 93.7708 360.203 94.5625 360.203 95.4062ZM383.094 104.312C381.917 104.312 380.849 104.115 379.891 103.719C378.943 103.312 378.125 102.745 377.438 102.016C376.76 101.286 376.24 100.422 375.875 99.4219C375.51 98.4219 375.328 97.3281 375.328 96.1406V95.4844C375.328 94.1094 375.531 92.8854 375.938 91.8125C376.344 90.7292 376.896 89.8125 377.594 89.0625C378.292 88.3125 379.083 87.7448 379.969 87.3594C380.854 86.974 381.771 86.7812 382.719 86.7812C383.927 86.7812 384.969 86.9896 385.844 87.4062C386.729 87.8229 387.453 88.4062 388.016 89.1562C388.578 89.8958 388.995 90.7708 389.266 91.7812C389.536 92.7812 389.672 93.875 389.672 95.0625V96.3594H377.047V94H386.781V93.7812C386.74 93.0312 386.583 92.3021 386.312 91.5938C386.052 90.8854 385.635 90.3021 385.062 89.8438C384.49 89.3854 383.708 89.1562 382.719 89.1562C382.062 89.1562 381.458 89.2969 380.906 89.5781C380.354 89.849 379.88 90.2552 379.484 90.7969C379.089 91.3385 378.781 92 378.562 92.7812C378.344 93.5625 378.234 94.4635 378.234 95.4844V96.1406C378.234 96.9427 378.344 97.6979 378.562 98.4062C378.792 99.1042 379.12 99.7188 379.547 100.25C379.984 100.781 380.51 101.198 381.125 101.5C381.75 101.802 382.458 101.953 383.25 101.953C384.271 101.953 385.135 101.745 385.844 101.328C386.552 100.911 387.172 100.354 387.703 99.6562L389.453 101.047C389.089 101.599 388.625 102.125 388.062 102.625C387.5 103.125 386.807 103.531 385.984 103.844C385.172 104.156 384.208 104.312 383.094 104.312ZM395.922 90.4531V104H393.016V87.0938H395.766L395.922 90.4531ZM395.328 94.9062L393.984 94.8594C393.995 93.7031 394.146 92.6354 394.438 91.6562C394.729 90.6667 395.161 89.8073 395.734 89.0781C396.307 88.349 397.021 87.7865 397.875 87.3906C398.729 86.9844 399.719 86.7812 400.844 86.7812C401.635 86.7812 402.365 86.8958 403.031 87.125C403.698 87.3438 404.276 87.6927 404.766 88.1719C405.255 88.651 405.635 89.2656 405.906 90.0156C406.177 90.7656 406.312 91.6719 406.312 92.7344V104H403.422V92.875C403.422 91.9896 403.271 91.2812 402.969 90.75C402.677 90.2188 402.26 89.8333 401.719 89.5938C401.177 89.3438 400.542 89.2188 399.812 89.2188C398.958 89.2188 398.245 89.3698 397.672 89.6719C397.099 89.974 396.641 90.3906 396.297 90.9219C395.953 91.4531 395.703 92.0625 395.547 92.75C395.401 93.4271 395.328 94.1458 395.328 94.9062ZM406.281 93.3125L404.344 93.9062C404.354 92.9792 404.505 92.0885 404.797 91.2344C405.099 90.3802 405.531 89.6198 406.094 88.9531C406.667 88.2865 407.37 87.7604 408.203 87.375C409.036 86.9792 409.99 86.7812 411.062 86.7812C411.969 86.7812 412.771 86.901 413.469 87.1406C414.177 87.3802 414.771 87.75 415.25 88.25C415.74 88.7396 416.109 89.3698 416.359 90.1406C416.609 90.9115 416.734 91.8281 416.734 92.8906V104H413.828V92.8594C413.828 91.9115 413.677 91.1771 413.375 90.6562C413.083 90.125 412.667 89.7552 412.125 89.5469C411.594 89.3281 410.958 89.2188 410.219 89.2188C409.583 89.2188 409.021 89.3281 408.531 89.5469C408.042 89.7656 407.63 90.0677 407.297 90.4531C406.964 90.8281 406.708 91.2604 406.531 91.75C406.365 92.2396 406.281 92.7604 406.281 93.3125ZM425.859 102.25L430.562 87.0938H433.656L426.875 106.609C426.719 107.026 426.51 107.474 426.25 107.953C426 108.443 425.677 108.906 425.281 109.344C424.885 109.781 424.406 110.135 423.844 110.406C423.292 110.688 422.63 110.828 421.859 110.828C421.63 110.828 421.339 110.797 420.984 110.734C420.63 110.672 420.38 110.62 420.234 110.578L420.219 108.234C420.302 108.245 420.432 108.255 420.609 108.266C420.797 108.286 420.927 108.297 421 108.297C421.656 108.297 422.214 108.208 422.672 108.031C423.13 107.865 423.516 107.578 423.828 107.172C424.151 106.776 424.427 106.229 424.656 105.531L425.859 102.25ZM422.406 87.0938L426.797 100.219L427.547 103.266L425.469 104.328L419.25 87.0938H422.406Z" fill="white"/>
</svg>
